<mxfile host="65bd71144e">
    <diagram id="0ZP0MBUooBLrJXob4vkn" name="Page-1">
        <mxGraphModel dx="815" dy="554" grid="1" gridSize="10" guides="1" tooltips="1" connect="1" arrows="1" fold="1" page="1" pageScale="1" pageWidth="3300" pageHeight="2339" math="0" shadow="0">
            <root>
                <mxCell id="0"/>
                <mxCell id="1" parent="0"/>
                <mxCell id="4" value="" style="rounded=0;whiteSpace=wrap;html=1;rotation=-90;strokeColor=#FF0000;" vertex="1" parent="1">
                    <mxGeometry x="395" y="375" width="450" height="80" as="geometry"/>
                </mxCell>
                <mxCell id="9" value="" style="shape=or;whiteSpace=wrap;html=1;rotation=-90;strokeColor=#CC0000;" vertex="1" parent="1">
                    <mxGeometry x="575" y="105" width="90" height="80" as="geometry"/>
                </mxCell>
                <mxCell id="10" value="" style="rounded=1;whiteSpace=wrap;html=1;direction=south;" vertex="1" parent="1">
                    <mxGeometry x="500" y="480" width="50" height="90" as="geometry"/>
                </mxCell>
                <mxCell id="12" value="" style="rounded=1;whiteSpace=wrap;html=1;direction=south;" vertex="1" parent="1">
                    <mxGeometry x="690" y="480" width="50" height="90" as="geometry"/>
                </mxCell>
                <mxCell id="13" value="" style="rounded=0;whiteSpace=wrap;html=1;" vertex="1" parent="1">
                    <mxGeometry x="550" y="515" width="30" height="20" as="geometry"/>
                </mxCell>
                <mxCell id="14" value="" style="rounded=0;whiteSpace=wrap;html=1;" vertex="1" parent="1">
                    <mxGeometry x="660" y="515" width="30" height="20" as="geometry"/>
                </mxCell>
                <mxCell id="16" value="" style="shape=manualInput;whiteSpace=wrap;html=1;size=40;" vertex="1" parent="1">
                    <mxGeometry x="320" y="370" width="260" height="70" as="geometry"/>
                </mxCell>
                <mxCell id="17" value="" style="shape=manualInput;whiteSpace=wrap;html=1;size=40;flipH=1;" vertex="1" parent="1">
                    <mxGeometry x="660" y="370" width="260" height="70" as="geometry"/>
                </mxCell>
                <mxCell id="18" value="" style="rounded=1;whiteSpace=wrap;html=1;rotation=-90;" vertex="1" parent="1">
                    <mxGeometry x="595" y="580" width="50" height="40" as="geometry"/>
                </mxCell>
                <mxCell id="19" value="" style="shape=manualInput;whiteSpace=wrap;html=1;size=40;flipH=1;fillColor=#1ba1e2;strokeColor=#006EAF;fontColor=#ffffff;" vertex="1" parent="1">
                    <mxGeometry x="660" y="380" width="230" height="50" as="geometry"/>
                </mxCell>
                <mxCell id="20" value="" style="shape=manualInput;whiteSpace=wrap;html=1;size=40;flipH=0;fillColor=#1ba1e2;strokeColor=#006EAF;fontColor=#ffffff;flipV=0;" vertex="1" parent="1">
                    <mxGeometry x="350" y="380" width="230" height="50" as="geometry"/>
                </mxCell>
            </root>
        </mxGraphModel>
    </diagram>
</mxfile>